# xmcd CD database file
#
# Track frame offsets:
#	150
#	16077
#	36802
#	46970
#	59173
#	71476
#	86276
#	102432
#	123997
#	139611
#	163591
#	174402
#	182980
#	205412
#
# Disc length: 2968 seconds
#
# Revision: 0
# Processed by: cddbd v1.5.2PL0 Copyright (c) Steve Scherf et al.
# Submitted via: CDex 1.51
#
DISCID=bf0b960e
DTITLE=Whiskey Gentry - Please Make Welcome
DYEAR=2011
DGENRE=Country
TTITLE0=Queen of My Heart
TTITLE1=Cost of Loving You
TTITLE2=Dime Short of a Dollar Bill
TTITLE3=Preacher's Daughter
TTITLE4=Eula Mae
TTITLE5='Til it Breaks
TTITLE6=Ode to Miss Eason
TTITLE7=Such a Long Time Ago
TTITLE8=Clarkesville
TTITLE9=Alone on a Saturday Night
TTITLE10=Mary
TTITLE11=The Gentry
TTITLE12=Four Horsemen
TTITLE13=Comrade (Live)
EXTD=YEAR: 2011
EXTT0=
EXTT1=
EXTT2=
EXTT3=
EXTT4=
EXTT5=
EXTT6=
EXTT7=
EXTT8=
EXTT9=
EXTT10=
EXTT11=
EXTT12=
EXTT13=
PLAYORDER=
